<svg width="34" height="24" viewBox="0 0 34 24" fill="none" xmlns="http://www.w3.org/2000/svg">
<rect x="0.5" y="0.5" width="33" height="23" rx="3.5" fill="white" stroke="#D9D9D9"/>
<path d="M16.016 9.27158H16.0158L14.3998 16.0042H14.4998V16.004V11.0883C14.4998 10.2876 15.1765 9.63003 16.0155 9.63C16.0155 9.63 16.0155 9.63 16.0156 9.63L17.5201 9.63202C17.5201 9.63202 17.5202 9.63202 17.5202 9.63202C18.3566 9.63372 19.0308 10.2905 19.0305 11.0883V11.0883V12.1345C19.0305 12.9352 18.354 13.593 17.5148 13.593H15.3879C15.2908 13.593 15.2058 13.6699 15.2058 13.7722C15.2058 13.8746 15.2908 13.9514 15.3879 13.9514H17.5148H17.5148C18.5481 13.9512 19.3948 13.1398 19.3948 12.1345V11.0883C19.3948 10.0861 18.5509 9.27574 17.5208 9.27361L17.5207 9.27361L16.016 9.27158Z" fill="#3D3D3D" stroke="#3D3D3D" stroke-width="0.2"/>
<path d="M20.8008 13.7948C20.8008 13.8971 20.8858 13.974 20.983 13.974C21.0801 13.974 21.1651 13.8971 21.1651 13.7948V10.1229C21.1651 9.65005 20.7674 9.27158 20.2861 9.27158H19.6333C19.5361 9.27158 19.4511 9.3484 19.4511 9.45079C19.4511 9.55318 19.5361 9.63 19.6333 9.63H20.2861C20.5733 9.63 20.8008 9.85457 20.8008 10.1229V13.7948Z" fill="#3D3D3D" stroke="#3D3D3D" stroke-width="0.2"/>
<path d="M20.8429 8.88064L20.5469 8.59494C20.4735 8.52433 20.4735 8.40945 20.5469 8.33859L20.8429 8.05314C20.9163 7.98229 21.0357 7.98229 21.1092 8.05314L21.4049 8.33859C21.4784 8.40919 21.4784 8.52408 21.4049 8.59494L21.1079 8.88064C21.0344 8.95149 20.9153 8.95149 20.8418 8.88064" fill="#32BCAD"/>
<path d="M23.8986 9.67277L23.8986 9.67273C23.627 9.41101 23.2664 9.26719 22.8839 9.26719H22.8839H22.8839H22.8839H22.8839H22.8839H22.8839H22.8839H22.8839H22.8839H22.8839H22.8839H22.8839H22.8839H22.8839H22.8839H22.8839H22.8839H22.8839H22.8839H22.8839H22.8839H22.8839H22.8839H22.8839H22.8839H22.8839H22.8839H22.8839H22.8839H22.8839H22.8839H22.8839H22.8838H22.8838H22.8838H22.8838H22.8838H22.8838H22.8838H22.8838H22.8838H22.8838H22.8838H22.8838H22.8838H22.8838H22.8838H22.8838H22.8838H22.8838H22.8838H22.8838H22.8838H22.8838H22.8838H22.8838H22.8838H22.8838H22.8838H22.8838H22.8838H22.8838H22.8838H22.8838H22.8838H22.8838H22.8838H22.8838H22.8838H22.8838H22.8838H22.8838H22.8838H22.8838H22.8838H22.8838H22.8838H22.8838H22.8838H22.8838H22.8838H22.8838H22.8838H22.8838H22.8838H22.8838H22.8838H22.8838H22.8838H22.8838H22.8838H22.8838H22.8838H22.8838H22.8838H22.8838H22.8838H22.8838H22.8838H22.8838H22.8838H22.8838H22.8838H22.8838H22.8838H22.8838H22.8838H22.8838H22.8838H22.8838H22.8838H22.8838H22.8838H22.8838H22.8838H22.8838H22.8838H22.8838H22.8838H22.8838H22.8838H22.8838H22.8838H22.8838H22.8838H22.8838H22.8838H22.8838H22.8838H22.8838H22.8838H22.8838H22.8838H22.8838H22.8838H22.8838H22.8838H22.8838H22.8838H22.8838H22.8838H22.8838H22.8838H22.8838H22.8838H22.8838H22.8838H22.8838H22.8838H22.8838H22.8838H22.8838H22.8838H22.8838H22.8838H22.8838H22.8838H22.8838H22.8838H22.8838H22.8838H22.8838H22.8838H22.8837H22.8837H22.8837H22.8837H22.8837H22.8837H22.8837H22.8837H22.8837H22.8837H22.8837H22.8837H22.8837H22.8837H22.8837H22.8837H22.8837H22.8837H22.8837H22.8837H22.8837H22.8837H22.8837H22.8837H22.8837H22.8837H22.8837H22.8837H22.8837H22.8837H22.8837H22.8837H22.8837H22.8837H22.8837H22.8837H22.8837H22.8837H22.8837H22.8837H22.8837H22.8837H22.8837H22.8837H22.8837H22.8837H22.8837H22.8837H22.8837H22.8837H22.8837H22.8837H22.8837H22.8837H22.8837H22.8837H22.8837H22.8837H22.8837H22.8837H22.8837H22.8837H22.8837H22.8837H22.8837H22.8837H22.8837H22.8837H22.8837H22.8837H22.8837H22.8837H22.8837H22.8837H22.8837H22.8837H22.8837H22.8837H22.8837H22.8837H22.8837H22.8837H22.8837H22.8837H22.8837H22.8837H22.8836H22.8836H22.8836H22.8836H22.8836H22.8836H22.8836H22.8836H22.8836H22.8836H22.8836H22.8836H22.8836H22.8836H22.8836H22.8836H22.8836H22.8836H22.8836H22.8836H22.8836H22.8836H22.8836H22.8836H22.8836H22.8836H22.8836H22.8836H22.8836H22.8836H22.8836H22.8836H22.8836H22.8836H22.8836H22.8836H22.8836H22.8836H22.8836H22.8836H22.8836H22.8836H22.8836H22.8836H22.8836H22.8836H22.8836H22.8836H22.8836H22.8836H22.8836H22.8836H22.8836H22.8836H22.8836H22.8836H22.8836H22.8836H22.8836H22.8836H22.8836H22.8836H22.8836H22.8836H22.8836H22.8836H22.8836H22.8836H22.8836H22.8836H22.8836H22.8836H22.8836H22.8835H22.8835H22.8835H22.8835H22.8835H22.8835H22.8835H22.8835H22.8835H22.8835H22.8835H22.8835H22.8835H22.8835H22.8835H22.8835H22.8835H22.8835H22.8835H22.8835H22.8835H22.8835H22.8835H22.8835H22.8835H22.8835H22.8835H22.8835H22.8835H22.8835H22.8835H22.8835H22.8835H22.8835H22.8835H22.8835H22.8835H22.8835H22.8835H22.8835H22.8835H22.8835H22.8835H22.8835H22.8835H22.8835H22.8835H22.8835H22.8835H22.8835H22.8835H22.8835H22.8835H22.8835H22.8835H22.8835H22.8835H22.8835H22.8835H22.8835H22.8835H22.8835H22.8835H22.8835H22.8835H22.8835H22.8835H22.8835H22.8834H22.8834H22.8834H22.8834H22.8834H22.8834H22.8834H22.8834H22.8834H22.8834H22.8834H22.8834H22.8834H22.8834H22.8834H22.8834H22.8834H22.8834H22.8834H22.8834H22.8834H22.8834H22.8834H22.8834H22.8834H22.8834H22.8834H22.8834H22.8834H22.8834H22.8834H22.8834H22.8834H22.8834H22.8834H22.8834H22.8834H22.8834H22.8834H22.8834H22.8834H22.8834H22.8834H22.8834H22.8834H22.8834H22.8834H22.8834H22.8834H22.8834H22.8834H22.8834H22.8834H22.8834H22.8834H22.8834H22.8834H22.8834H22.8834H22.8834H22.8834H22.8834H22.8834H22.8834H22.8834H22.8834H22.8833H22.8833H22.8833H22.2361C22.1389 9.26719 22.0539 9.34401 22.0539 9.44639C22.0539 9.54878 22.1389 9.6256 22.2361 9.6256H22.8833H22.8833H22.8833H22.8834H22.8834H22.8834H22.8834H22.8834H22.8834H22.8834H22.8834H22.8834H22.8834H22.8834H22.8834H22.8834H22.8834H22.8834H22.8834H22.8834H22.8834H22.8834H22.8834H22.8834H22.8834H22.8834H22.8834H22.8834H22.8834H22.8834H22.8834H22.8834H22.8834H22.8834H22.8834H22.8834H22.8834H22.8834H22.8834H22.8834H22.8834H22.8834H22.8834H22.8834H22.8834H22.8834H22.8834H22.8834H22.8834H22.8834H22.8834H22.8834H22.8834H22.8834H22.8834H22.8834H22.8834H22.8834H22.8834H22.8834H22.8834H22.8834H22.8834H22.8834H22.8834H22.8834H22.8834H22.8834H22.8834H22.8834H22.8834H22.8834H22.8834H22.8834H22.8834H22.8834H22.8834H22.8834H22.8834H22.8835H22.8835H22.8835H22.8835H22.8835H22.8835H22.8835H22.8835H22.8835H22.8835H22.8835H22.8835H22.8835H22.8835H22.8835H22.8835H22.8835H22.8835H22.8835H22.8835H22.8835H22.8835H22.8835H22.8835H22.8835H22.8835H22.8835H22.8835H22.8835H22.8835H22.8835H22.8835H22.8835H22.8835H22.8835H22.8835H22.8835H22.8835H22.8835H22.8835H22.8835H22.8835H22.8835H22.8835H22.8835H22.8835H22.8835H22.8835H22.8835H22.8835H22.8835H22.8835H22.8835H22.8835H22.8835H22.8835H22.8835H22.8835H22.8835H22.8835H22.8835H22.8835H22.8835H22.8835H22.8835H22.8835H22.8835H22.8835H22.8835H22.8835H22.8835H22.8835H22.8835H22.8835H22.8835H22.8835H22.8835H22.8835H22.8835H22.8835H22.8835H22.8835H22.8835H22.8835H22.8835H22.8835H22.8835H22.8835H22.8835H22.8835H22.8835H22.8835H22.8835H22.8835H22.8835H22.8835H22.8835H22.8835H22.8835H22.8835H22.8835H22.8835H22.8835H22.8835H22.8836H22.8836H22.8836H22.8836H22.8836H22.8836H22.8836H22.8836H22.8836H22.8836H22.8836H22.8836H22.8836H22.8836H22.8836H22.8836H22.8836H22.8836H22.8836H22.8836H22.8836H22.8836H22.8836H22.8836H22.8836H22.8836H22.8836H22.8836H22.8836H22.8836H22.8836H22.8836H22.8836H22.8836H22.8836H22.8836H22.8836H22.8836H22.8836H22.8836H22.8836H22.8836H22.8836H22.8836H22.8836H22.8836H22.8836H22.8836H22.8836H22.8836H22.8836H22.8836H22.8836H22.8836H22.8836H22.8836H22.8836H22.8836H22.8836H22.8836H22.8836H22.8836H22.8836H22.8836H22.8836H22.8836H22.8836H22.8836H22.8836H22.8836H22.8836H22.8836H22.8836H22.8836H22.8836H22.8836H22.8836H22.8836H22.8836H22.8836H22.8836H22.8836H22.8836H22.8836H22.8836H22.8836H22.8836H22.8836H22.8836H22.8836H22.8836H22.8836H22.8836H22.8836H22.8836H22.8836H22.8836H22.8836H22.8836H22.8836H22.8836H22.8836H22.8836H22.8836H22.8836H22.8836H22.8836H22.8836H22.8836H22.8836H22.8836H22.8836H22.8836H22.8836H22.8836H22.8836H22.8836H22.8836H22.8836H22.8836H22.8836H22.8836H22.8836H22.8836H22.8836H22.8836H22.8836H22.8837H22.8837H22.8837H22.8837H22.8837H22.8837H22.8837H22.8837H22.8837H22.8837H22.8837H22.8837H22.8837H22.8837H22.8837H22.8837H22.8837H22.8837H22.8837H22.8837H22.8837H22.8837H22.8837H22.8837H22.8837H22.8837H22.8837H22.8837H22.8837H22.8837H22.8837H22.8837H22.8837H22.8837H22.8837H22.8837H22.8837H22.8837H22.8837H22.8837H22.8837H22.8837H22.8837H22.8837H22.8837H22.8837H22.8837H22.8837H22.8837H22.8837H22.8837H22.8837H22.8837H22.8837H22.8837H22.8837H22.8837H22.8837H22.8837H22.8837H22.8837H22.8837H22.8837H22.8837H22.8837H22.8837H22.8837H22.8837H22.8837H22.8837H22.8837H22.8837H22.8837H22.8837H22.8837H22.8837H22.8837H22.8837H22.8837H22.8837H22.8837H22.8837H22.8837H22.8837H22.8837H22.8837H22.8837H22.8837H22.8837H22.8837H22.8837H22.8837H22.8837H22.8837H22.8837H22.8837H22.8837H22.8837H22.8837H22.8837H22.8837H22.8837H22.8837H22.8837H22.8837H22.8837H22.8837H22.8837H22.8837H22.8838H22.8838H22.8838H22.8838H22.8838H22.8838H22.8838H22.8838H22.8838H22.8838H22.8838H22.8838H22.8838H22.8838H22.8838H22.8838H22.8838H22.8838H22.8838H22.8838H22.8838H22.8838H22.8838H22.8838H22.8838H22.8838H22.8838H22.8838H22.8838H22.8838H22.8838H22.8838H22.8838H22.8838H22.8838H22.8838H22.8838H22.8838H22.8838H22.8838H22.8838H22.8838H22.8838H22.8838H22.8838H22.8838H22.8838H22.8838H22.8838H22.8838H22.8838H22.8838H22.8838H22.8838H22.8838H22.8838H22.8838H22.8838H22.8838H22.8838H22.8838H22.8838H22.8838H22.8838H22.8838H22.8838H22.8838H22.8838H22.8838H22.8838H22.8838H22.8838H22.8838H22.8838H22.8838H22.8838H22.8838H22.8838H22.8838H22.8838H22.8839H22.8839H22.8839H22.8839H22.8839H22.8839H22.8839H22.8839H22.8839H22.8839H22.8839H22.8839H22.8839H22.8839C23.1718 9.6256 23.4414 9.73338 23.6438 9.92858L25.1579 11.3889L25.2274 11.317L25.158 11.389L25.158 11.3889C25.2917 11.5182 25.4667 11.582 25.6407 11.582C25.8141 11.582 25.9888 11.5185 26.122 11.39L26.1228 11.3892L26.1229 11.3892L27.6315 9.93444C27.8339 9.73939 28.1033 9.63142 28.391 9.63142H28.391H28.391H28.391H28.391H28.391H28.391H28.391H28.391H28.391H28.391H28.391H28.391H28.391H28.391H28.391H28.391H28.391H28.391H28.391H28.391H28.3911H28.3911H28.3911H28.3911H28.3911H28.3911H28.3911H28.3911H28.3911H28.3911H28.3911H28.3911H28.3911H28.3911H28.3911H28.3911H28.3911H28.3911H28.3911H28.3911H28.3911H28.3911H28.3912H28.3912H28.3912H28.3912H28.3912H28.3912H28.3912H28.3912H28.3912H28.3912H28.3912H28.3912H28.3912H28.3912H28.3912H28.3912H28.3912H28.3912H28.3912H28.3912H28.3912H28.3913H28.3913H28.3913H28.3913H28.3913H28.3913H28.3913H28.3913H28.3913H28.3913H28.3913H28.3913H28.3913H28.3913H28.3913H28.3913H28.3913H28.3913H28.3913H28.3913H28.3913H28.3913H28.3914H28.3914H28.3914H28.3914H28.3914H28.3914H28.3914H28.3914H28.3914H28.3914H28.3914H28.3914H28.3914H28.3914H28.3914H28.3914H28.3914H28.3914H28.3914H28.3914H28.3914H28.3914H28.3915H28.3915H28.3915H28.3915H28.3915H28.3915H28.3915H28.3915H28.3915H28.3915H28.3915H28.3915H28.3915H28.3915H28.3915H28.3915H28.3915H28.3915H28.3915H28.3915H28.3915H28.3916H28.3916H28.3916H28.3916H28.3916H28.3916H28.3916H28.3916H28.3916H28.3916H28.3916H28.3916H28.3916H28.3916H28.3916H28.3916H28.3916H28.3916H28.3916H28.3916H28.3916H28.3916H28.3917H28.3917H28.3917H28.3917H28.3917H28.3917H28.3917H28.3917H28.3917H28.3917H28.3917H28.3917H28.3917H28.3917H28.3917H28.3917H28.3917H28.3917H28.3917H28.3917H28.9181C29.0153 9.63142 29.1002 9.5546 29.1002 9.45221C29.1002 9.34983 29.0153 9.27301 28.9181 9.27301H28.3917H28.3917H28.3917H28.3917H28.3917H28.3917H28.3917H28.3917H28.3917H28.3917H28.3917H28.3917H28.3917H28.3917H28.3917H28.3917H28.3917H28.3917H28.3917H28.3917H28.3917H28.3916H28.3916H28.3916H28.3916H28.3916H28.3916H28.3916H28.3916H28.3916H28.3916H28.3916H28.3916H28.3916H28.3916H28.3916H28.3916H28.3916H28.3916H28.3916H28.3916H28.3916H28.3915H28.3915H28.3915H28.3915H28.3915H28.3915H28.3915H28.3915H28.3915H28.3915H28.3915H28.3915H28.3915H28.3915H28.3915H28.3915H28.3915H28.3915H28.3915H28.3915H28.3915H28.3915H28.3914H28.3914H28.3914H28.3914H28.3914H28.3914H28.3914H28.3914H28.3914H28.3914H28.3914H28.3914H28.3914H28.3914H28.3914H28.3914H28.3914H28.3914H28.3914H28.3914H28.3914H28.3914H28.3913H28.3913H28.3913H28.3913H28.3913H28.3913H28.3913H28.3913H28.3913H28.3913H28.3913H28.3913H28.3913H28.3913H28.3913H28.3913H28.3913H28.3913H28.3913H28.3913H28.3913H28.3912H28.3912H28.3912H28.3912H28.3912H28.3912H28.3912H28.3912H28.3912H28.3912H28.3912H28.3912H28.3912H28.3912H28.3912H28.3912H28.3912H28.3912H28.3912H28.3912H28.3912H28.3912H28.3911H28.3911H28.3911H28.3911H28.3911H28.3911H28.3911H28.3911H28.3911H28.3911H28.3911H28.3911H28.3911H28.3911H28.3911H28.3911H28.3911H28.3911H28.3911H28.3911H28.3911H28.3911H28.391H28.391H28.391H28.391H28.391H28.391H28.391H28.391H28.391H28.391H28.391H28.391H28.391H28.391H28.391H28.391H28.391H28.391H28.391H28.391C28.0087 9.27301 27.6481 9.41683 27.3767 9.67858C27.3767 9.67859 27.3767 9.67859 27.3767 9.67859L25.8686 11.1329L25.8686 11.1329L25.8678 11.1336C25.8678 11.1336 25.8678 11.1336 25.8678 11.1336C25.7429 11.2539 25.5379 11.2538 25.4128 11.1332L23.8986 9.67277Z" fill="#3D3D3D" stroke="#3D3D3D" stroke-width="0.2"/>
<path d="M26.123 11.8187L26.1231 11.8187L27.6318 13.2738C27.8342 13.469 28.1038 13.5768 28.3915 13.5768H28.3917H28.9181C29.0153 13.5768 29.1002 13.6536 29.1002 13.756C29.1002 13.8584 29.0153 13.9352 28.9181 13.9352H28.3917H28.3917H28.3917H28.3917H28.3917H28.3917H28.3917H28.3917H28.3917H28.3917H28.3917H28.3917H28.3917H28.3917H28.3917H28.3917H28.3917H28.3917H28.3917H28.3917H28.3917H28.3917H28.3917H28.3917H28.3916H28.3916H28.3916H28.3916H28.3916H28.3916H28.3916H28.3916H28.3916H28.3916H28.3916H28.3916H28.3916H28.3916H28.3916H28.3916H28.3916H28.3916H28.3916H28.3916H28.3916H28.3916H28.3916H28.3916H28.3915H28.3915H28.3915H28.3915H28.3915H28.3915H28.3915H28.3915H28.3915H28.3915H28.3915H28.3915H28.3915H28.3915H28.3915H28.3915H28.3915H28.3915H28.3915H28.3915H28.3915H28.3915H28.3915H28.3915H28.3915H28.3914H28.3914H28.3914H28.3914H28.3914H28.3914H28.3914H28.3914H28.3914H28.3914H28.3914H28.3914H28.3914H28.3914H28.3914H28.3914H28.3914H28.3914H28.3914H28.3914H28.3914H28.3914H28.3914H28.3913H28.3913H28.3913H28.3913H28.3913H28.3913H28.3913H28.3913H28.3913H28.3913H28.3913H28.3913H28.3913H28.3913H28.3913H28.3913H28.3913H28.3913H28.3913H28.3913H28.3913H28.3913H28.3912H28.3912H28.3912H28.3912H28.3912H28.3912H28.3912C28.0087 13.9352 27.6481 13.7914 27.3765 13.5297L27.3764 13.5296L25.8678 12.0745C25.7428 11.9541 25.5376 11.954 25.4123 12.0745L26.123 11.8187ZM26.123 11.8187C25.8564 11.5621 25.4243 11.5617 25.1578 11.8187L23.6436 13.2791C23.6436 13.2791 23.6436 13.2791 23.6436 13.2791C23.6436 13.2791 23.6436 13.2791 23.6436 13.2791C23.4411 13.4741 23.1715 13.5821 22.8836 13.5821H22.8833H22.2361C22.1389 13.5821 22.0539 13.6589 22.0539 13.7613C22.0539 13.8637 22.1389 13.9405 22.2361 13.9405H22.8833H22.8833H22.8834H22.8834H22.8834H22.8834H22.8834H22.8834H22.8834H22.8834H22.8834H22.8834H22.8834H22.8834H22.8834H22.8834H22.8834H22.8834H22.8834H22.8834H22.8834H22.8834H22.8834H22.8834H22.8834H22.8834H22.8834H22.8834H22.8834H22.8834H22.8834H22.8834H22.8834H22.8834H22.8834H22.8835H22.8835H22.8835H22.8835H22.8835H22.8835H22.8835H22.8835H22.8835H22.8835H22.8835H22.8835H22.8835H22.8835H22.8835H22.8835H22.8835H22.8835H22.8835H22.8835H22.8835H22.8835H22.8835H22.8835H22.8835H22.8835H22.8835H22.8835H22.8835H22.8835H22.8835H22.8835H22.8835H22.8835H22.8836H22.8836H22.8836H22.8836H22.8836H22.8836H22.8836H22.8836H22.8836H22.8836H22.8836H22.8836H22.8836H22.8836H22.8836H22.8836H22.8836H22.8836H22.8836H22.8836H22.8836H22.8836H22.8836H22.8836H22.8836H22.8836H22.8836H22.8836H22.8836H22.8836H22.8836H22.8836H22.8836H22.8836H22.8836H22.8836H22.8837H22.8837H22.8837H22.8837H22.8837H22.8837H22.8837H22.8837H22.8837H22.8837H22.8837H22.8837H22.8837H22.8837H22.8837H22.8837H22.8837H22.8837H22.8837H22.8837H22.8837H22.8837H22.8837H22.8837H22.8837H22.8837H22.8837H22.8837H22.8837H22.8837H22.8837H22.8837H22.8837H22.8837H22.8837H22.8837H22.8837H22.8837H22.8837H22.8837H22.8837H22.8837H22.8837H22.8838H22.8838H22.8838H22.8838H22.8838H22.8838H22.8838H22.8838H22.8838H22.8838H22.8838H22.8838H22.8838H22.8838H22.8838H22.8838H22.8838H22.8838H22.8838H22.8838H22.8838H22.8838H22.8838H22.8838H22.8838H22.8838H22.8838H22.8838H22.8838H22.8838H22.8838H22.8838H22.8838H22.8838H22.8838H22.8838H22.8838H22.8838H22.8838H22.8838H22.8838H22.8838H22.8838H22.8838H22.8838H22.8838H22.8838H22.8839H22.8839H22.8839H22.8839H22.8839H22.8839H22.8839H22.8839H22.8839H22.8839C23.2663 13.9405 23.6272 13.7967 23.8982 13.5349L25.4123 12.0746L26.123 11.8187Z" fill="#3D3D3D" stroke="#3D3D3D" stroke-width="0.2"/>
<path d="M10.4586 14.6939C10.1362 14.6949 9.82631 14.5717 9.59857 14.3515L8.3562 13.1526C8.26489 13.0683 8.12111 13.0683 8.0298 13.1526L6.78324 14.3548C6.55549 14.5755 6.24588 14.699 5.92316 14.6982H5.67993L7.25421 16.2166C7.74591 16.6898 8.5417 16.6898 9.0334 16.2166L10.6108 14.6949L10.4586 14.6939Z" fill="#32BCAD"/>
<path d="M5.92342 10.4571C6.24615 10.4563 6.55575 10.5798 6.7835 10.8005L8.03006 12.003C8.12032 12.0898 8.26621 12.0898 8.35646 12.003L9.59857 10.805C9.82605 10.5841 10.1359 10.4603 10.4586 10.4614H10.6082L9.03078 8.93999C8.53961 8.46601 7.74328 8.46601 7.25185 8.93973L7.25158 8.93999L5.67993 10.4571H5.92342Z" fill="#32BCAD"/>
<path d="M11.913 11.7208L10.9597 10.8014C10.9382 10.8098 10.9154 10.8143 10.8921 10.8146H10.4586C10.233 10.8151 10.0168 10.9016 9.85697 11.055L8.61486 12.2522C8.38187 12.4764 8.00483 12.4764 7.77184 12.2522L6.52501 11.0504C6.36522 10.8968 6.14902 10.8103 5.92337 10.8098H5.39127C5.36923 10.8093 5.34771 10.8052 5.32725 10.7974L4.36799 11.7208C3.87734 12.195 3.87734 12.9625 4.36799 13.4367L5.32515 14.3599C5.34561 14.352 5.36713 14.3477 5.38917 14.3475H5.92337C6.14902 14.3467 6.36522 14.2604 6.52501 14.1068L7.77158 12.9046C7.99696 12.6874 8.38974 12.6874 8.61486 12.9046L9.85697 14.1023C10.0168 14.2556 10.233 14.3422 10.4586 14.3427H10.8921C10.9154 14.3429 10.9382 14.3472 10.9597 14.3558L11.913 13.4365C12.4044 12.9628 12.4044 12.1947 11.9132 11.7208C11.9132 11.7208 11.9132 11.7208 11.913 11.7208Z" fill="#32BCAD"/>
</svg>
