<svg width="34" height="24" viewBox="0 0 34 24" fill="none" xmlns="http://www.w3.org/2000/svg">
<rect width="34" height="24" rx="4" fill="#1F72CD"/>
<path fill-rule="evenodd" clip-rule="evenodd" d="M6.18111 8L3 15.2467H6.80824L7.28035 14.0913H8.35949L8.8316 15.2467H13.0234V14.3649L13.3969 15.2467H15.5652L15.9387 14.3462V15.2467H24.6566L25.7166 14.1213L26.7092 15.2467L31.1868 15.2561L27.9957 11.6436L31.1868 8H26.7786L25.7467 9.10463L24.7854 8H15.3016L14.4872 9.87045L13.6537 8H9.85343V8.85186L9.43068 8H6.18111ZM6.91801 9.02881H8.77432L10.8844 13.9429V9.02881H12.9179L14.5476 12.5522L16.0496 9.02881H18.073V14.2288H16.8418L16.8318 10.1541L15.0368 14.2288H13.9355L12.1305 10.1541V14.2288H9.59776L9.11759 13.063H6.52341L6.04423 14.2278H4.68719L6.91801 9.02881ZM24.2055 9.02881H19.1993V14.2258H24.128L25.7166 12.5034L27.2477 14.2258H28.8483L26.5219 11.6423L28.8483 9.02881H27.3172L25.7367 10.7314L24.2055 9.02881ZM7.82099 9.90869L6.96631 11.9854H8.67467L7.82099 9.90869ZM20.4356 11.0551V10.1059V10.105H23.5593L24.9223 11.6231L23.4989 13.1495H20.4356V12.1132H23.1667V11.0551H20.4356Z" fill="white"/>
</svg>
