<svg width="34" height="24" viewBox="0 0 34 24" fill="none" xmlns="http://www.w3.org/2000/svg">
<rect x="0.5" y="0.5" width="33" height="23" rx="3.5" fill="white" stroke="#D9D9D9"/>
<path d="M27.8784 8.1123H26.269C25.7825 8.1123 25.4082 8.26201 25.1836 8.74856L22.1146 15.7474H24.2854C24.2854 15.7474 24.6597 14.8117 24.7345 14.5872C24.9591 14.5872 27.0924 14.5872 27.3918 14.5872C27.4667 14.8492 27.6538 15.71 27.6538 15.71H29.6L27.8784 8.1123ZM25.3333 13.0152C25.5205 12.5661 26.1567 10.8819 26.1567 10.8819C26.1567 10.9193 26.3439 10.4328 26.4187 10.1708L26.5684 10.8445C26.5684 10.8445 26.9801 12.6784 27.055 13.0527H25.3333V13.0152Z" fill="#3362AB"/>
<path d="M22.2644 13.2398C22.2644 14.8117 20.8421 15.8597 18.6339 15.8597C17.6983 15.8597 16.8 15.6725 16.3135 15.448L16.6129 13.7263L16.8749 13.8386C17.5486 14.138 17.9977 14.2503 18.8211 14.2503C19.4199 14.2503 20.0562 14.0257 20.0562 13.5018C20.0562 13.1649 19.7942 12.9404 18.9708 12.5661C18.1848 12.1918 17.1369 11.593 17.1369 10.5076C17.1369 9.01053 18.5965 8 20.655 8C21.441 8 22.1146 8.14971 22.5263 8.33684L22.2269 9.98363L22.0772 9.83392C21.703 9.68421 21.2164 9.5345 20.5053 9.5345C19.7193 9.57193 19.3451 9.90877 19.3451 10.2082C19.3451 10.545 19.7942 10.807 20.5053 11.1439C21.703 11.7053 22.2644 12.3415 22.2644 13.2398Z" fill="#3362AB"/>
<path d="M4 8.18731L4.03743 8.0376H7.25614C7.70527 8.0376 8.04211 8.18731 8.15439 8.67386L8.8655 12.0423C8.15439 10.2458 6.5076 8.78614 4 8.18731Z" fill="#F9B50B"/>
<path d="M13.3941 8.11213L10.138 15.7098H7.92982L6.05847 9.34722C7.40584 10.208 8.52865 11.5554 8.94034 12.4911L9.16491 13.277L11.186 8.07471H13.3941V8.11213Z" fill="#3362AB"/>
<path d="M14.255 8.07471H16.3135L15.0035 15.7098H12.9451L14.255 8.07471Z" fill="#3362AB"/>
</svg>
