<svg width="34" height="24" viewBox="0 0 34 24" fill="none" xmlns="http://www.w3.org/2000/svg">
<rect x="0.5" y="0.5" width="33" height="23" rx="3.5" fill="white" stroke="#D9D9D9"/>
<path d="M7.82415 9.49561C8.11184 9.40128 8.41961 9.35007 8.73984 9.35007C10.1374 9.35007 11.3032 10.3239 11.5706 11.6176L13.551 11.2215C13.0966 9.02277 11.1155 7.36768 8.73984 7.36768C8.19594 7.36768 7.6724 7.4546 7.18369 7.61471L7.82415 9.49561Z" fill="#FECA2F"/>
<path d="M5.46727 15.8676L6.65306 14.3365C6.12376 13.8011 5.78968 13.0195 5.78968 12.1483C5.78968 11.2777 6.12344 10.4961 6.6526 9.96109L5.46618 8.43018C4.56678 9.33977 4 10.6684 4 12.1483C4 13.6289 4.56761 14.958 5.46727 15.8676Z" fill="#1BA7DE"/>
<path d="M11.5712 12.6802C11.3029 13.9737 10.1378 14.9463 8.74151 14.9463C8.42115 14.9463 8.11278 14.8949 7.82506 14.8003L7.18369 16.6822C7.67316 16.8431 8.19686 16.9301 8.74151 16.9301C11.115 16.9301 13.0948 15.2762 13.551 13.0783L11.5712 12.6802Z" fill="#EC412A"/>
<path fill-rule="evenodd" clip-rule="evenodd" d="M23.0795 8.43018V13.8714L24.0559 14.2628L23.594 15.336L22.6284 14.9479C22.4112 14.8569 22.2643 14.7181 22.1527 14.5615C22.0455 14.4012 21.966 14.1821 21.966 13.8864V8.43018H23.0795ZM15.6738 12.4743C15.6981 10.9183 17.0232 9.67615 18.6312 9.69999C19.9959 9.72068 21.1267 10.645 21.4237 11.8745L16.1453 14.056C15.8387 13.6028 15.6644 13.0575 15.6738 12.4743ZM16.8816 12.6924C16.8743 12.6271 16.8692 12.5602 16.8711 12.4927C16.8863 11.5759 17.6664 10.8444 18.6138 10.8596C19.1295 10.8662 19.5873 11.0946 19.8969 11.448L16.8816 12.6924ZM19.7857 13.7026C19.4676 14.0019 19.0362 14.1842 18.5599 14.1776C18.2334 14.1724 17.9309 14.0778 17.6737 13.9204L17.036 14.9028C17.4727 15.1698 17.9876 15.3277 18.5427 15.336C19.3508 15.3476 20.0873 15.0407 20.6228 14.5339L19.7857 13.7026ZM27.1434 10.8595C26.9532 10.8595 26.7704 10.8892 26.5996 10.9447L26.2197 9.84371C26.5097 9.75007 26.8202 9.69921 27.1434 9.69921C28.5537 9.69921 29.7302 10.6679 30 11.9548L28.8238 12.1867C28.6653 11.4293 27.9732 10.8595 27.1434 10.8595ZM25.2123 14.629L26.007 13.76C25.6521 13.4561 25.4286 13.0123 25.4286 12.5176C25.4286 12.0235 25.6521 11.5799 26.0067 11.2763L25.2114 10.4072C24.6085 10.9236 24.2286 11.678 24.2286 12.5176C24.2286 13.3583 24.6088 14.1125 25.2123 14.629ZM27.1433 14.1761C27.9724 14.1761 28.6644 13.6068 28.8238 12.8506L29.9996 13.0834C29.7285 14.3689 28.5524 15.3363 27.1433 15.3363C26.8199 15.3363 26.5089 15.2853 26.2182 15.1912L26.599 14.0906C26.7701 14.1459 26.953 14.1761 27.1433 14.1761Z" fill="black"/>
</svg>
