<svg width="34" height="24" viewBox="0 0 34 24" fill="none" xmlns="http://www.w3.org/2000/svg">
<rect x="0.5" y="0.5" width="33" height="23" rx="3.5" fill="white" stroke="#D9D9D9"/>
<path d="M12.0395 7H9.75934C8.75188 7.04971 7.92836 7.47319 7.69058 8.34647C7.56659 8.80191 7.49835 9.3021 7.4014 9.77421C6.90851 12.1748 6.47147 14.6414 6 16.9941H23.7513C25.1236 16.9941 26.0659 16.6914 26.3205 15.5547C26.4388 15.0267 26.5521 14.4286 26.6653 13.8484C27.1065 11.5864 27.5481 9.32459 28 7H12.0395Z" fill="#B82126"/>
<path d="M21.198 12.9708C20.9518 13.2223 20.2608 13.2938 20.3315 12.6926C20.3902 12.1932 20.9111 12.0871 21.4757 12.1592C21.4337 12.4324 21.3856 12.7792 21.198 12.9708ZM20.4203 11.023C20.3968 11.1607 20.3607 11.2854 20.3315 11.4172C20.6134 11.3434 21.4912 11.1173 21.5758 11.5099C21.6038 11.6404 21.5554 11.779 21.5202 11.881C20.7264 11.8025 20.0794 11.9401 19.9093 12.5302C19.7953 12.9255 19.922 13.3145 20.1648 13.423C20.6324 13.6321 21.2011 13.3926 21.398 13.0636C21.3775 13.1775 21.3582 13.2925 21.3646 13.4346H21.7757C21.78 13.0238 21.8373 12.6912 21.8979 12.3215C21.9495 12.0067 22.0466 11.695 22.0312 11.4172C21.9959 10.7808 20.9858 11.0059 20.4203 11.023ZM24.542 13.1679C24.2204 13.1751 24.0605 12.9674 24.0532 12.623C24.0404 12.0198 24.2939 11.3497 24.8086 11.2896C25.0483 11.2617 25.2218 11.3198 25.3975 11.3824C25.2362 12.0599 25.2944 13.1511 24.542 13.1679ZM25.6085 9.97949C25.5676 10.3541 25.5128 10.7144 25.4419 11.0577C24.2701 10.6707 23.5514 11.5704 23.5643 12.6809C23.5669 12.8957 23.6023 13.1087 23.731 13.2607C23.9528 13.5225 24.588 13.5851 24.9086 13.3651C24.9707 13.3225 25.0342 13.2449 25.0753 13.1911C25.1062 13.1506 25.1553 13.0447 25.1641 13.0751C25.1473 13.1929 25.1221 13.3018 25.1197 13.4346H25.553C25.6365 12.1845 25.8947 11.1168 26.0863 9.97949H25.6085ZM13.3768 12.9824C13.1212 13.2649 12.4929 13.2606 12.4436 12.7853C12.4221 12.5785 12.496 12.3616 12.5325 12.1477C12.5694 11.9311 12.596 11.7233 12.6324 11.5331C12.8842 11.2123 13.6239 11.1736 13.699 11.7071C13.7641 12.1702 13.5885 12.7485 13.3768 12.9824ZM13.7545 11.023C13.3502 10.8645 12.8574 11.0537 12.6438 11.2337C12.6445 11.2416 12.6387 11.2427 12.6324 11.2433C12.6361 11.2401 12.64 11.2369 12.6438 11.2337C12.6437 11.233 12.6437 11.2324 12.6435 11.2317C12.6472 11.1543 12.6733 11.1004 12.6769 11.023H12.2658C12.0945 12.2123 11.8914 13.3684 11.677 14.5129H12.1547C12.2239 14.0671 12.2695 13.5969 12.3658 13.1795C12.4749 13.6186 13.1873 13.5346 13.4879 13.3651C14.1081 13.015 14.5865 11.3492 13.7545 11.023ZM16.0209 11.8578H14.8988C14.9343 11.5886 15.1664 11.2927 15.532 11.2781C15.8762 11.2643 16.1226 11.4099 16.0209 11.8578ZM15.5654 10.9766C15.2202 11.0043 14.9284 11.108 14.7211 11.336C14.4667 11.6157 14.2608 12.2339 14.3211 12.7969C14.4072 13.6001 15.3655 13.5713 16.132 13.3766C16.145 13.2357 16.1777 13.1152 16.1986 12.9824C15.8829 13.1057 15.3347 13.2779 15.0099 13.0636C14.7647 12.9018 14.7633 12.4921 14.8433 12.136C15.3584 12.1189 15.8938 12.1222 16.4097 12.136C16.4425 11.8837 16.5361 11.6085 16.4542 11.3592C16.346 11.0301 15.9592 10.945 15.5654 10.9766ZM11.3659 11.023C11.353 11.0249 11.3539 11.0413 11.3548 11.0577C11.2496 11.8793 11.1071 12.6621 10.9549 13.4346H11.4326C11.5474 12.6075 11.6789 11.7979 11.8436 11.023H11.3659ZM23.831 11.0346C23.4088 10.8143 23.0573 11.1839 22.92 11.4056C22.9591 11.2918 22.9614 11.1396 22.9978 11.023H22.5756C22.4618 11.8511 22.3245 12.6547 22.1645 13.4346H22.6534C22.6565 13.115 22.7166 12.8785 22.7644 12.565C22.8666 11.8957 23.0166 11.1617 23.7644 11.3824C23.7892 11.2692 23.7995 11.1408 23.831 11.0346ZM18.465 12.8665C18.421 12.7478 18.4096 12.5517 18.4206 12.4027C18.4453 12.0677 18.5622 11.6598 18.7428 11.4752C18.9919 11.2203 19.4837 11.2625 19.8759 11.4056C19.8881 11.2676 19.9147 11.1445 19.9315 11.0114C19.2881 10.9018 18.6776 10.97 18.3539 11.3244C18.0371 11.6714 17.8293 12.469 17.9762 12.9708C18.1481 13.5581 18.9187 13.59 19.5427 13.3651C19.5703 13.247 19.5849 13.1154 19.6093 12.994C19.2684 13.1789 18.6165 13.275 18.465 12.8665ZM18.1984 11.023C17.7748 10.8444 17.4418 11.1462 17.2874 11.4288C17.3224 11.3031 17.3369 11.1558 17.3652 11.023H16.943C16.8398 11.8583 16.6877 12.6425 16.5431 13.4346H17.0208C17.0878 12.9644 17.1167 12.3307 17.2652 11.881C17.3839 11.5216 17.6946 11.2154 18.1428 11.3824C18.1491 11.2498 18.1855 11.1486 18.1984 11.023ZM10.4994 10.049C10.4312 10.5112 10.3543 10.9643 10.2772 11.4172C9.78228 11.4226 9.27697 11.4427 8.79962 11.4056C8.88977 10.9625 8.95444 10.4928 9.04399 10.049H8.51077C8.31984 11.1793 8.14622 12.3276 7.93307 13.4346H8.47742C8.56284 12.8667 8.64268 12.293 8.75514 11.7534C9.2193 11.7415 9.7756 11.7207 10.2216 11.765C10.1297 12.3261 10.0185 12.8671 9.93279 13.4346H10.4772C10.6521 12.2877 10.8364 11.1505 11.0549 10.049H10.4994ZM11.8548 10.5592C11.95 10.4908 12.0727 10.1789 11.9325 10.049C11.8882 10.0079 11.8139 9.99601 11.7103 10.0143C11.6143 10.0312 11.559 10.0653 11.5215 10.1186C11.4611 10.2044 11.4058 10.4631 11.4992 10.5592C11.5903 10.6528 11.7942 10.6027 11.8548 10.5592Z" fill="white"/>
</svg>
