<svg width="34" height="24" viewBox="0 0 34 24" fill="none" xmlns="http://www.w3.org/2000/svg">
<rect x="0.5" y="0.5" width="33" height="23" rx="3.5" fill="white" stroke="#D9D9D9"/>
<path d="M29 11.0564C29 6.83428 23.6836 3.39224 17.1269 3.39224C10.5692 3.39224 5.25465 6.83428 5.25465 11.0564C5.25465 11.1654 5.25375 11.4677 5.25375 11.5058C5.25375 15.9841 9.89917 19.6123 17.1251 19.6123C24.3968 19.6123 29 15.9859 29 11.5058V11.0564Z" fill="#28316B"/>
<path d="M28.5448 11.0516C28.5448 15.0318 23.435 18.2593 17.1288 18.2593C10.8245 18.2593 5.71378 15.0318 5.71378 11.0516C5.71378 7.07065 10.8245 3.84312 17.1288 3.84312C23.435 3.84312 28.5448 7.07065 28.5448 11.0516Z" fill="#50B4E9"/>
<path d="M13.3387 8.77834C13.3325 8.78986 13.2184 8.90687 13.292 8.99906C13.4726 9.22688 14.0295 9.3563 14.5926 9.23219C14.9276 9.15773 15.3561 8.82089 15.7719 8.49556C16.2228 8.14187 16.671 7.7873 17.1201 7.64724C17.5962 7.49743 17.9006 7.56126 18.1027 7.62065C18.3237 7.68713 18.5842 7.82985 18.9982 8.13744C19.7796 8.71717 22.9206 11.4226 23.4622 11.8906C23.9005 11.6956 25.8424 10.8694 28.4822 10.2968C28.2531 8.90776 27.3963 7.6366 26.0984 6.59593C24.2894 7.34585 22.0781 7.73766 19.9162 6.69432C19.9054 6.69166 18.7351 6.14384 17.58 6.17132C15.8644 6.21032 15.1207 6.94341 14.3339 7.71904L13.3387 8.77834Z" fill="white"/>
<path d="M23.3355 12.1846C23.2987 12.1527 19.6431 8.99435 18.814 8.38005C18.3353 8.02547 18.0685 7.93505 17.7883 7.8996C17.6419 7.88187 17.4416 7.90758 17.2997 7.94658C16.9153 8.04941 16.4114 8.38182 15.9641 8.73108C15.5006 9.09629 15.0641 9.43846 14.659 9.52887C14.1417 9.64322 13.5093 9.5076 13.2201 9.31524C13.1034 9.23812 13.0216 9.1477 12.9821 9.05729C12.8752 8.81263 13.0719 8.6185 13.1034 8.58482L14.1129 7.50868C14.2297 7.39344 14.3482 7.27732 14.4695 7.16297C14.1444 7.20552 13.8435 7.28795 13.5498 7.36773C13.1842 7.46967 12.833 7.56541 12.4764 7.56541C12.3282 7.56541 11.5324 7.43776 11.3815 7.39699C10.469 7.14878 9.6669 6.91033 8.47051 6.35808C7.03611 7.41206 6.07684 8.73019 5.8002 10.1813C6.00589 10.2354 6.33732 10.332 6.47654 10.3621C9.72348 11.0748 10.7339 11.8088 10.9181 11.9621C11.1166 11.7441 11.4022 11.6058 11.7219 11.6058C12.0821 11.6076 12.4055 11.7849 12.6022 12.0597C12.7881 11.9143 13.0441 11.792 13.3755 11.792C13.5255 11.792 13.6818 11.8185 13.8399 11.8717C14.2063 11.9949 14.3949 12.2361 14.4929 12.455C14.6159 12.3992 14.7668 12.3584 14.9446 12.3593C15.1198 12.3593 15.3021 12.3983 15.4844 12.4763C16.0826 12.7298 16.1761 13.3113 16.1222 13.7483C16.1653 13.743 16.2066 13.7412 16.2515 13.7412C16.9602 13.7421 17.5386 14.3103 17.5377 15.0115C17.5377 15.2287 17.4811 15.4317 17.3841 15.6116C17.5772 15.718 18.0694 15.9609 18.5006 15.9068C18.8464 15.8634 18.9775 15.7472 19.0242 15.6816C19.0565 15.6373 19.0907 15.5841 19.0583 15.546L18.144 14.5417C18.144 14.5417 17.9922 14.4016 18.0416 14.3467C18.0937 14.2917 18.1871 14.3715 18.2536 14.4256C18.7179 14.8103 19.2883 15.3891 19.2883 15.3891C19.2972 15.3962 19.3359 15.4689 19.5452 15.5061C19.7266 15.538 20.0472 15.5203 20.27 15.3404C20.3257 15.2952 20.3823 15.2375 20.429 15.1799C20.4254 15.1826 20.4218 15.1861 20.4182 15.1879C20.6526 14.8918 20.3921 14.5922 20.3921 14.5922L19.3233 13.4079C19.3233 13.4079 19.1697 13.2679 19.2218 13.2111C19.2685 13.1633 19.3673 13.2368 19.4338 13.2918C19.7724 13.5701 20.2511 14.0453 20.7092 14.4885C20.799 14.5523 21.2023 14.7988 21.7358 14.453C22.0592 14.243 22.1238 13.9859 22.1158 13.7909C22.0924 13.5338 21.8894 13.3503 21.8894 13.3503L20.429 11.9019C20.429 11.9019 20.2745 11.7716 20.3284 11.706C20.3733 11.6501 20.473 11.7299 20.5394 11.7849C21.0047 12.1687 22.2649 13.3086 22.2649 13.3086C22.2819 13.3211 22.7184 13.6269 23.2547 13.2883C23.4478 13.1668 23.5708 12.9842 23.5807 12.7724C23.5996 12.4027 23.3355 12.1846 23.3355 12.1846Z" fill="white"/>
<path d="M16.2509 14.0214C16.0246 14.0187 15.7776 14.1517 15.7443 14.1322C15.7264 14.1207 15.7587 14.0311 15.7802 13.9788C15.8009 13.9283 16.0991 13.0427 15.3725 12.7343C14.8156 12.4985 14.4761 12.7635 14.3593 12.8841C14.3279 12.9151 14.3144 12.9124 14.3108 12.8726C14.3 12.713 14.2282 12.2813 13.7477 12.1368C13.0605 11.9303 12.6195 12.4027 12.5073 12.5729C12.4579 12.1873 12.1273 11.8877 11.7222 11.8868C11.2821 11.8868 10.9247 12.2387 10.9247 12.6731C10.9247 13.1066 11.2812 13.4585 11.7213 13.4585C11.9351 13.4594 12.1291 13.3752 12.2719 13.2395C12.2764 13.244 12.2782 13.2511 12.2755 13.2661C12.2423 13.4603 12.1812 14.1668 12.9312 14.4548C13.2321 14.5701 13.4872 14.4841 13.6991 14.3369C13.762 14.2935 13.7719 14.3121 13.7629 14.3706C13.736 14.5524 13.7701 14.9415 14.3234 15.1622C14.7437 15.3315 14.9925 15.1587 15.1551 15.0098C15.2261 14.9459 15.2458 14.9575 15.2503 15.055C15.2692 15.5815 15.712 15.9981 16.25 15.999C16.8033 15.999 17.2524 15.5576 17.2524 15.0115C17.2524 14.4646 16.8042 14.0276 16.2509 14.0214Z" fill="white"/>
<path d="M16.2509 15.9287C15.7488 15.9287 15.341 15.5431 15.3231 15.0538C15.3213 15.0113 15.3168 14.8996 15.2216 14.8996C15.182 14.8996 15.147 14.9226 15.1084 14.9572C14.997 15.0591 14.8569 15.1611 14.6521 15.1611C14.5587 15.1611 14.4581 15.1398 14.3512 15.0972C13.8213 14.8854 13.8141 14.5255 13.8357 14.381C13.841 14.3429 13.8428 14.303 13.8168 14.272L13.7836 14.2436H13.7512C13.7243 14.2436 13.6955 14.2534 13.6587 14.28C13.5051 14.3863 13.3578 14.4369 13.2087 14.4369C13.1261 14.4369 13.0426 14.4218 12.9572 14.389C12.2602 14.1213 12.315 13.4715 12.3492 13.2756C12.3537 13.2357 12.3438 13.2056 12.3186 13.1843L12.2692 13.1435L12.2234 13.1879C12.0869 13.3182 11.909 13.3882 11.7222 13.3882C11.3234 13.3882 10.9974 13.0673 10.9974 12.6728C10.9974 12.2784 11.3243 11.9584 11.7231 11.9584C12.0842 11.9584 12.3923 12.2261 12.4381 12.5833L12.4632 12.7748L12.5692 12.6126C12.5818 12.5931 12.8746 12.156 13.4135 12.156C13.515 12.156 13.621 12.1738 13.727 12.2057C14.1572 12.3342 14.2291 12.718 14.2407 12.8794C14.2488 12.9725 14.3153 12.9769 14.3288 12.9769C14.3647 12.9769 14.3934 12.9538 14.4123 12.9334C14.4931 12.8492 14.6692 12.711 14.9458 12.711C15.0725 12.7118 15.2063 12.7402 15.3446 12.7996C16.0272 13.0886 15.7174 13.9449 15.7138 13.9529C15.6554 14.0947 15.6536 14.1576 15.7084 14.1931L15.7353 14.2064H15.7551C15.7856 14.2064 15.8233 14.1931 15.8871 14.1718C15.9796 14.1399 16.1197 14.0929 16.2509 14.0929H16.2518C16.7646 14.0991 17.1823 14.5104 17.1823 15.0121C17.1814 15.5174 16.7637 15.9287 16.2509 15.9287ZM23.4768 11.8077C22.3514 10.837 19.7484 8.6032 19.0424 8.08108C18.6401 7.78235 18.3652 7.62368 18.1245 7.55365C18.0158 7.52174 17.8658 7.48451 17.6727 7.48451C17.494 7.48451 17.3018 7.51642 17.0997 7.57936C16.6434 7.72119 16.1907 8.07754 15.7506 8.42148L15.729 8.4392C15.3195 8.76009 14.8973 9.09251 14.5776 9.16254C14.4374 9.19356 14.2937 9.20952 14.1509 9.20952C13.7925 9.20952 13.471 9.10758 13.3506 8.95511C13.33 8.93029 13.3435 8.8904 13.3893 8.83101L13.3955 8.82303L14.3862 7.76906C15.1623 7.00406 15.8952 6.27984 17.5829 6.24172C17.6107 6.24084 17.6395 6.23995 17.6673 6.23995C18.7173 6.24172 19.7673 6.70533 19.8849 6.75852C20.8703 7.23365 21.8861 7.47476 22.9082 7.47565C23.9735 7.47565 25.072 7.21503 26.227 6.69026C26.0977 6.583 25.963 6.47929 25.8255 6.37646C24.8106 6.81082 23.8441 7.03065 22.9109 7.03065C21.958 7.02888 21.0059 6.80284 20.0825 6.35785C20.0331 6.33568 18.8745 5.79496 17.6673 5.79496C17.6359 5.79496 17.6044 5.79496 17.573 5.79584C16.1557 5.82864 15.3572 6.32593 14.8201 6.76029C14.2973 6.77359 13.8473 6.89769 13.4467 7.00849C13.0884 7.106 12.7803 7.1911 12.4794 7.1911C12.3545 7.1911 12.1318 7.18046 12.112 7.17957C11.7653 7.16894 10.0202 6.74699 8.63157 6.22754C8.48965 6.32682 8.35313 6.42876 8.2211 6.53336C9.67167 7.1193 11.4366 7.57404 11.9935 7.60861C12.148 7.62013 12.3132 7.63698 12.4785 7.63698C12.8468 7.63698 13.2141 7.53504 13.5707 7.43753C13.7809 7.37814 14.0126 7.3152 14.256 7.26822C14.1913 7.33204 14.1267 7.39587 14.0611 7.46058L13.0542 8.53494C12.9761 8.61383 12.8027 8.8248 12.9168 9.08453C12.9617 9.18913 13.0524 9.2893 13.1818 9.3744C13.4216 9.53396 13.8509 9.64122 14.2497 9.64122C14.4006 9.6421 14.5452 9.62703 14.6764 9.59689C15.0985 9.5047 15.5404 9.15633 16.0093 8.78846C16.3829 8.49505 16.9137 8.12363 17.3197 8.01371C17.4338 7.98357 17.5739 7.96496 17.6862 7.96496C17.7194 7.96585 17.7509 7.96585 17.7796 7.96939C18.0482 8.00396 18.3086 8.09349 18.7721 8.43743C19.5984 9.04996 23.2549 12.2075 23.2909 12.2385C23.2936 12.2403 23.5262 12.4379 23.51 12.7695C23.501 12.953 23.3978 13.1161 23.2181 13.2295C23.0618 13.327 22.9002 13.3767 22.7385 13.3767C22.4933 13.3767 22.3253 13.2632 22.3145 13.2552C22.3002 13.2446 21.0481 12.1108 20.5864 11.7306C20.5137 11.6703 20.4427 11.6162 20.3709 11.6162C20.3313 11.6162 20.2972 11.6322 20.2739 11.6605C20.2011 11.7492 20.2828 11.8715 20.3789 11.9522L21.843 13.4024C21.8448 13.4041 22.0253 13.5717 22.0442 13.7951C22.0559 14.0353 21.9391 14.2365 21.6966 14.3934C21.5241 14.506 21.3499 14.5627 21.1783 14.5627C20.9529 14.5627 20.7966 14.4617 20.7607 14.4369L20.5514 14.2339C20.167 13.8607 19.7709 13.4751 19.4817 13.2366C19.4107 13.1781 19.3353 13.1249 19.2634 13.1249C19.2275 13.1249 19.1951 13.1391 19.1709 13.1639C19.1377 13.2003 19.1143 13.265 19.1969 13.3731C19.2311 13.4183 19.2706 13.4547 19.2706 13.4547L20.3394 14.6381C20.3484 14.6496 20.5586 14.8969 20.3628 15.1433L20.3251 15.1912C20.2927 15.2258 20.2586 15.2568 20.2263 15.2852C20.0439 15.4332 19.8005 15.4483 19.7044 15.4483C19.6523 15.4483 19.602 15.4438 19.5598 15.4359C19.4538 15.4181 19.3829 15.3889 19.3496 15.349L19.337 15.3348C19.2778 15.2763 18.7398 14.7329 18.2943 14.3668C18.2359 14.319 18.1622 14.2569 18.0868 14.2569C18.0491 14.2569 18.0158 14.272 17.9907 14.2995C17.9017 14.3952 18.0338 14.5379 18.0904 14.5893L19.002 15.5804C19.0011 15.5892 18.9886 15.6105 18.9661 15.6415C18.9338 15.6867 18.8233 15.7958 18.4937 15.8365C18.4541 15.841 18.4128 15.8427 18.3724 15.8427C18.0311 15.8427 17.6682 15.6796 17.4805 15.5812C17.5667 15.404 17.6107 15.2089 17.6107 15.0121C17.6107 14.272 17.0018 13.6701 16.2518 13.6701C16.2356 13.6701 16.2194 13.6701 16.2024 13.671C16.2284 13.3332 16.1799 12.6932 15.5144 12.4122C15.3231 12.3298 15.1317 12.289 14.9458 12.289C14.8012 12.289 14.6611 12.3129 14.5291 12.3635C14.3925 12.0984 14.1635 11.9061 13.8644 11.8059C13.6991 11.7492 13.5357 11.7208 13.3767 11.7208C13.0991 11.7208 12.845 11.8006 12.6177 11.9601C12.3995 11.6933 12.0698 11.5346 11.7231 11.5346C11.4204 11.5346 11.1285 11.6543 10.9121 11.8662C10.6291 11.6517 9.50371 10.9469 6.49388 10.2724C6.34838 10.2404 6.01425 10.1456 5.80857 10.0862C5.77444 10.2467 5.74929 10.4089 5.73132 10.5729C5.73132 10.5729 6.2864 10.7041 6.39598 10.7289C9.47047 11.4035 10.4872 12.1037 10.6588 12.2358C10.6004 12.3741 10.5708 12.523 10.5699 12.6728C10.5699 13.3004 11.0863 13.8101 11.7222 13.811C11.7932 13.811 11.8632 13.8048 11.9333 13.7924C12.0294 14.2534 12.3348 14.6035 12.8027 14.7826C12.9384 14.8349 13.0776 14.8615 13.2132 14.8615C13.3012 14.8615 13.3884 14.8508 13.4755 14.8295C13.5617 15.0449 13.7566 15.3153 14.1904 15.4891C14.3431 15.5493 14.4949 15.5804 14.6431 15.5804C14.7644 15.5804 14.8829 15.56 14.9952 15.5192C15.2036 16.02 15.6985 16.3516 16.2509 16.3516C16.6164 16.3524 16.9676 16.2053 17.2245 15.9447C17.4437 16.0644 17.9071 16.2815 18.3742 16.2824C18.4353 16.2824 18.4919 16.2798 18.5493 16.2727C19.0137 16.2142 19.2293 16.0351 19.329 15.8959C19.3469 15.8711 19.3631 15.8445 19.3766 15.8188C19.487 15.8498 19.6065 15.8747 19.7457 15.8747C19.999 15.8747 20.2424 15.7904 20.4894 15.6132C20.7301 15.4403 20.9026 15.1939 20.9268 14.9838C20.9277 14.9811 20.9286 14.9776 20.9286 14.974C21.0104 14.9909 21.0948 14.9989 21.1765 14.9989C21.4388 14.9989 21.6957 14.9191 21.9409 14.7604C22.4142 14.4537 22.4969 14.0539 22.4897 13.7915C22.5723 13.8075 22.6567 13.8172 22.7412 13.8172C22.9864 13.8172 23.2271 13.7445 23.4561 13.6001C23.7507 13.4148 23.9268 13.1311 23.9537 12.8014C23.9726 12.5771 23.916 12.3511 23.7956 12.156C24.5896 11.8183 26.4031 11.1659 28.5399 10.6908C28.5264 10.5268 28.503 10.3654 28.4725 10.205C25.8884 10.7714 23.96 11.594 23.4768 11.8077Z" fill="#28316B"/>
</svg>
